<svg x="0" y="0" width="250" height="250" viewBox="0 0 350 350" xmlns="http://www.w3.org/2000/svg"
     xmlns:xlink="http://www.w3.org/1999/xlink" xmlns:fi="http://pattern.flaticon.com/">
    <rect x="0px" y="0px" width="100%" height="100%" opacity="1" fill="#ffffff"/>
    <defs>
        <g transform="matrix(3.8161823749542236 -1.335663914680481 1.335663914680481 3.8161823749542236 15.800053596496582 -6.560764789581299)"
           id="L1_0">
            <path
                d="M 4.7288131,1.58192 A 0.26460981,0.26460981 0 0 0 4.5081099,1.6991 L 2.6741256,4.46668 a 0.26460981,0.26460981 0 0 0 -0.013672,0.26758 l 3.2480469,6.33203 a 0.26458335,0.26458335 0 0 0 0.357422,0.11523 0.26458335,0.26458335 0 0 0 0.1132812,-0.35546 L 3.2014693,4.63074 4.7288131,2.3241 6.3401412,4.74012 a 0.26458335,0.26458335 0 0 0 0.3671875,0.0723 0.26458335,0.26458335 0 0 0 0.072266,-0.36718 L 4.9495166,1.69914 A 0.26460981,0.26460981 0 0 0 4.7288135,1.58196 Z"
                id="path1147" display="inline" fill="#ebebeb" fill-opacity="1" stroke="none" stroke-dasharray="none"
                stroke-linecap="round" stroke-linejoin="round" stroke-opacity="1" stroke-width="0.529167"/>
            <path
                d="M 8.4495162,1.58192 A 0.26460981,0.26460981 0 0 0 8.2288131,1.6991 L 6.3928756,4.48231 a 0.26460981,0.26460981 0 0 0 -0.044922,0.14648 l 0.025391,6.08203 a 0.26458335,0.26458335 0 0 0 0.265625,0.26367 0.26458335,0.26458335 0 0 0 0.2636719,-0.26562 L 6.8772505,4.70692 8.4514692,2.3241 10.03936,4.70887 l 0.05469,6.04297 a 0.26458335,0.26458335 0 0 0 0.265625,0.26172 0.26458335,0.26458335 0 0 0 0.263672,-0.26563 L 10.568657,4.62488 A 0.26460981,0.26460981 0 0 0 10.523737,4.48035 L 8.6682681,1.6991 a 0.26460981,0.26460981 0 0 0 -0.21875,-0.11718 z"
                id="path1153" display="inline" fill="#ebebeb" fill-opacity="1" stroke="none" stroke-dasharray="none"
                stroke-linecap="round" stroke-linejoin="round" stroke-opacity="1" stroke-width="0.529167"/>
            <path
                d="M 12.197563,1.58192 A 0.26460981,0.26460981 0 0 0 11.97686,1.6991 l -1.830078,2.7461 a 0.26458335,0.26458335 0 0 0 0.07227,0.36718 0.26458335,0.26458335 0 0 0 0.367187,-0.0723 l 1.611328,-2.41797 1.535157,2.29687 -3.042969,6.12891 a 0.26458335,0.26458335 0 0 0 0.119141,0.35547 0.26458335,0.26458335 0 0 0 0.353515,-0.12109 L 14.275692,4.71664 A 0.26460981,0.26460981 0 0 0 14.258112,4.45297 L 12.416315,1.69906 a 0.26460981,0.26460981 0 0 0 -0.21875,-0.11718 z"
                id="path1167" display="inline" fill="#ebebeb" fill-opacity="1" stroke="none" stroke-dasharray="none"
                stroke-linecap="round" stroke-linejoin="round" stroke-opacity="1" stroke-width="0.529167"/>
            <path
                d="m 5.8147506,10.83973 a 0.26460981,0.26460981 0 0 0 -0.265625,0.26367 v 1.32812 c 0,1.60998 1.3119057,2.91993 2.921875,2.91993 1.6099704,0 2.9199224,-1.30995 2.9199224,-2.91993 V 11.1034 a 0.26460981,0.26460981 0 0 0 -0.263672,-0.26367 z m 0.2636719,0.52929 h 4.7832035 v 1.0625 c 0,1.324 -1.0666331,2.39258 -2.3906254,2.39258 -1.3239918,0 -2.3925781,-1.06858 -2.3925781,-2.39258 z"
                id="path1338" display="inline" fill="#ebebeb" fill-opacity="1" stroke="none" stroke-dasharray="none"
                stroke-linecap="round" stroke-linejoin="round" stroke-opacity="1" stroke-width="0.529167"/>
            <path
                d="m 5.9573287,12.34168 a 0.26458335,0.26458335 0 0 0 -0.2636719,0.26563 0.26458335,0.26458335 0 0 0 0.2636719,0.26367 h 5.0937503 a 0.26458335,0.26458335 0 0 0 0.263672,-0.26367 0.26458335,0.26458335 0 0 0 -0.263672,-0.26563 z"
                id="path1347" display="inline" fill="#ebebeb" fill-opacity="1" stroke="none" stroke-dasharray="none"
                stroke-linecap="round" stroke-linejoin="miter" stroke-opacity="1" stroke-width="0.529167"/>
        </g>
        <g transform="matrix(5.82352352142334 -1.358822226524353 1.358822226524353 5.82352352142334 170.16282653808594 280.7373962402344)"
           id="L1_1">
            <path
                d="m 3.1063145,4.31041 a 0.26458335,0.26458335 0 0 0 -0.265625,0.26368 0.26458335,0.26458335 0 0 0 0.265625,0.26562 H 14.006706 A 0.26458335,0.26458335 0 0 0 14.272331,4.57409 0.26458335,0.26458335 0 0 0 14.006706,4.31041 Z"
                id="path1069" display="inline" fill="#ebebeb" fill-opacity="1" stroke="none" stroke-dasharray="none"
                stroke-linecap="round" stroke-linejoin="round" stroke-opacity="1" stroke-width="0.52916667"/>
            <path
                d="M 2.9520176,7.60143 A 0.26458335,0.26458335 0 0 0 2.6863926,7.8651 0.26458335,0.26458335 0 0 0 2.9520176,8.13073 H 14.006706 A 0.26458335,0.26458335 0 0 0 14.272331,7.8651 0.26458335,0.26458335 0 0 0 14.006706,7.60143 Z"
                id="path1071" display="inline" fill="#ebebeb" fill-opacity="1" stroke="none" stroke-dasharray="none"
                stroke-linecap="round" stroke-linejoin="round" stroke-opacity="1" stroke-width="0.52916667"/>
            <path
                d="m 14.237173,3.17565 c -0.182141,0 -0.313675,0.12178 -0.382812,0.24023 -0.06914,0.11845 -0.09961,0.25335 -0.09961,0.39844 v 9.30469 c 0,0.14509 0.03047,0.27998 0.09961,0.39844 0.06914,0.11845 0.200671,0.24023 0.382812,0.24023 h 0.621094 c 0.182141,0 0.313675,-0.12178 0.382813,-0.24023 0.06914,-0.11846 0.09961,-0.25335 0.09961,-0.39844 V 3.81432 c 0,-0.14509 -0.03047,-0.27999 -0.09961,-0.39844 C 15.17194,3.29743 15.040408,3.17565 14.858267,3.17565 Z m 0.06836,0.5293 h 0.482422 c 0.0098,0.0235 0.02344,0.0581 0.02344,0.10937 v 9.30469 c 0,0.0513 -0.01365,0.0859 -0.02344,0.10937 h -0.482422 c -0.0098,-0.0236 -0.02344,-0.0582 -0.02344,-0.10937 V 3.81432 c 0,-0.0512 0.01367,-0.0858 0.02344,-0.10937 z"
                id="rect1126" display="inline" fill="#ebebeb" fill-opacity="1" stroke="none" stroke-dasharray="none"
                stroke-linecap="round" stroke-linejoin="round" stroke-opacity="1" stroke-width="0.52916667"/>
            <path
                d="M 5.3035801,4.42565 A 0.26458335,0.26458335 0 0 0 5.0399083,4.69127 V 7.8651 A 0.26458335,0.26458335 0 0 0 5.3035801,8.13073 0.26458335,0.26458335 0 0 0 5.5692051,7.8651 V 4.69127 A 0.26458335,0.26458335 0 0 0 5.3035801,4.42565 Z"
                id="path1128" display="inline" fill="#ebebeb" fill-opacity="1" stroke="none" stroke-dasharray="none"
                stroke-linecap="round" stroke-linejoin="round" stroke-opacity="1" stroke-width="0.52916667"/>
            <path
                d="M 7.4207676,4.42565 A 0.26458335,0.26458335 0 0 0 7.1570957,4.69127 V 7.8651 A 0.26458335,0.26458335 0 0 0 7.4207676,8.13073 0.26458335,0.26458335 0 0 0 7.6863926,7.8651 V 4.69127 A 0.26458335,0.26458335 0 0 0 7.4207676,4.42565 Z"
                id="path1130" display="inline" fill="#ebebeb" fill-opacity="1" stroke="none" stroke-dasharray="none"
                stroke-linecap="round" stroke-linejoin="round" stroke-opacity="1" stroke-width="0.52916667"/>
            <path
                d="M 9.5379551,4.42565 A 0.26458335,0.26458335 0 0 0 9.2723301,4.69127 V 7.8651 A 0.26458335,0.26458335 0 0 0 9.5379551,8.13073 0.26458335,0.26458335 0 0 0 9.801627,7.8651 V 4.69127 A 0.26458335,0.26458335 0 0 0 9.5379551,4.42565 Z"
                id="path1132" display="inline" fill="#ebebeb" fill-opacity="1" stroke="none" stroke-dasharray="none"
                stroke-linecap="round" stroke-linejoin="round" stroke-opacity="1" stroke-width="0.52916667"/>
            <path
                d="M 11.655143,4.42565 A 0.26458335,0.26458335 0 0 0 11.389518,4.69127 V 7.8651 A 0.26458335,0.26458335 0 0 0 11.655143,8.13073 0.26458335,0.26458335 0 0 0 11.918814,7.8651 V 4.69127 A 0.26458335,0.26458335 0 0 0 11.655143,4.42565 Z"
                id="path1134" display="inline" fill="#ebebeb" fill-opacity="1" stroke="none" stroke-dasharray="none"
                stroke-linecap="round" stroke-linejoin="round" stroke-opacity="1" stroke-width="0.52916667"/>
            <path
                d="M 3.0789707,5.48424 A 0.26458335,0.26458335 0 0 0 2.8152989,5.74987 0.26458335,0.26458335 0 0 0 3.0789707,6.01354 H 13.879753 A 0.26458335,0.26458335 0 0 0 14.143424,5.74987 0.26458335,0.26458335 0 0 0 13.879753,5.48424 Z"
                id="path1136" display="inline" fill="#ebebeb" fill-opacity="1" stroke="none" stroke-dasharray="none"
                stroke-linecap="round" stroke-linejoin="round" stroke-opacity="1" stroke-width="0.52916667"/>
            <path
                d="m 3.1688145,6.54284 a 0.26458335,0.26458335 0 0 0 -0.265625,0.26562 0.26458335,0.26458335 0 0 0 0.265625,0.26367 H 13.789908 A 0.26458335,0.26458335 0 0 0 14.05358,6.80846 0.26458335,0.26458335 0 0 0 13.789908,6.54284 Z"
                id="path1138" display="inline" fill="#ebebeb" fill-opacity="1" stroke="none" stroke-dasharray="none"
                stroke-linecap="round" stroke-linejoin="round" stroke-opacity="1" stroke-width="0.52916667"/>
            <path
                d="m 2.6981114,3.17565 c 0.1821413,0 0.3136749,0.12178 0.3828125,0.24023 0.069138,0.11845 0.099609,0.25335 0.099609,0.39844 v 9.30469 c 0,0.14509 -0.030472,0.27998 -0.099609,0.39844 -0.069138,0.11845 -0.2006712,0.24023 -0.3828125,0.24023 H 2.0770176 c -0.1821413,0 -0.315628,-0.12178 -0.3847656,-0.24023 C 1.623114,13.39899 1.592643,13.2641 1.592643,13.11901 V 3.81432 c 0,-0.14509 0.030472,-0.27999 0.099609,-0.39844 C 1.76139,3.29743 1.8948763,3.17565 2.0770176,3.17565 Z m -0.070313,0.5293 H 2.1453765 c -0.00978,0.0235 -0.023437,0.0581 -0.023437,0.10937 v 9.30469 c 0,0.0513 0.013655,0.0859 0.023437,0.10937 h 0.4824219 c 0.00978,-0.0235 0.023437,-0.0581 0.023437,-0.10937 V 3.81432 c 0,-0.0513 -0.013655,-0.0859 -0.023437,-0.10937 z"
                id="rect1727" display="inline" fill="#ebebeb" fill-opacity="1" stroke="none" stroke-dasharray="none"
                stroke-linecap="round" stroke-linejoin="round" stroke-opacity="1" stroke-width="0.52916667"/>
        </g>
        <g transform="matrix(5.3062424659729 2.8572075366973877 -2.8572075366973877 5.3062424659729 219.90618896484375 116.1181640625)"
           id="L1_2">
            <path
                d="m 8.4676434,1.04284 c -1.4918814,0 -2.6464843,1.46571 -2.6464843,3.20703 0,1.74132 1.1546029,3.20898 2.6464843,3.20898 1.4918819,0 2.6445306,-1.46766 2.6445306,-3.20898 0,-1.74132 -1.1526487,-3.20703 -2.6445306,-3.20703 z m 0,0.52929 c 1.1383748,0 2.1171876,1.16777 2.1171876,2.67774 0,1.50996 -0.9788128,2.67969 -2.1171876,2.67969 -1.1383748,0 -2.1171875,-1.16973 -2.1171875,-2.67969 0,-1.50997 0.9788127,-2.67774 2.1171875,-2.67774 z"
                id="path1489" display="inline" fill="#ebebeb" fill-opacity="1" stroke="none" stroke-dasharray="none"
                stroke-linecap="round" stroke-linejoin="round" stroke-opacity="1" stroke-width="0.52916667"/>
            <path
                d="M 8.0770184,6.93737 A 0.26458335,0.26458335 0 0 0 7.8133465,7.20104 v 6.26953 a 0.26458335,0.26458335 0 0 0 0.2636719,0.26367 0.26458335,0.26458335 0 0 0 0.265625,-0.26367 V 7.20104 A 0.26458335,0.26458335 0 0 0 8.0770184,6.93737 Z m 0.78125,0 a 0.26458335,0.26458335 0 0 0 -0.265625,0.26367 v 6.26953 a 0.26458335,0.26458335 0 0 0 0.265625,0.26367 0.26458335,0.26458335 0 0 0 0.2636719,-0.26367 V 7.20104 A 0.26458335,0.26458335 0 0 0 8.8582684,6.93737 Z"
                id="rect1492" display="inline" fill="#ebebeb" fill-opacity="1" stroke="none" stroke-dasharray="none"
                stroke-linecap="round" stroke-linejoin="round" stroke-opacity="1" stroke-width="0.52916667"/>
            <path
                d="m 8.0223309,13.34752 c -0.2702611,0 -0.4960937,0.22584 -0.4960937,0.4961 v 1.55078 c 0,0.27026 0.2258326,0.49609 0.4960937,0.49609 h 0.8886719 c 0.2702611,0 0.4960937,-0.22583 0.4960937,-0.49609 v -1.55078 c 0,-0.27026 -0.2258326,-0.4961 -0.4960937,-0.4961 z m 0.033203,0.5293 H 8.8777995 V 15.3612 H 8.0555341 Z"
                id="rect1494" display="inline" fill="#ebebeb" fill-opacity="1" stroke="none" stroke-dasharray="none"
                stroke-linecap="round" stroke-linejoin="round" stroke-opacity="1" stroke-width="0.52916667"/>
            <path
                d="M 7.3426434,1.57213 A 0.26458335,0.26458335 0 0 0 7.0789715,1.83581 V 6.86315 A 0.26458335,0.26458335 0 0 0 7.3426434,7.12877 0.26458335,0.26458335 0 0 0 7.6082684,6.86315 V 1.83581 A 0.26458335,0.26458335 0 0 0 7.3426434,1.57213 Z"
                id="path1502" display="inline" fill="#ebebeb" fill-opacity="1" stroke="none" stroke-dasharray="none"
                stroke-linecap="round" stroke-linejoin="round" stroke-opacity="1" stroke-width="0.52916667"/>
            <path
                d="M 8.4715497,1.04284 A 0.26458335,0.26458335 0 0 0 8.2059247,1.30651 V 7.12877 A 0.26458335,0.26458335 0 0 0 8.4715497,7.39245 0.26458335,0.26458335 0 0 0 8.7352215,7.12877 V 1.30651 A 0.26458335,0.26458335 0 0 0 8.4715497,1.04284 Z"
                id="path1504" display="inline" fill="#ebebeb" fill-opacity="1" stroke="none" stroke-dasharray="none"
                stroke-linecap="round" stroke-linejoin="round" stroke-opacity="1" stroke-width="0.52916667"/>
            <path
                d="M 9.5828778,1.47643 A 0.26458335,0.26458335 0 0 0 9.3192059,1.74206 V 6.69323 A 0.26458335,0.26458335 0 0 0 9.5828778,6.95885 0.26458335,0.26458335 0 0 0 9.8485028,6.69323 V 1.74206 A 0.26458335,0.26458335 0 0 0 9.5828778,1.47643 Z"
                id="path1506" display="inline" fill="#ebebeb" fill-opacity="1" stroke="none" stroke-dasharray="none"
                stroke-linecap="round" stroke-linejoin="round" stroke-opacity="1" stroke-width="0.52916667"/>
            <path
                d="M 6.3777998,2.8944 A 0.26458335,0.26458335 0 0 0 6.1121748,3.16002 0.26458335,0.26458335 0 0 0 6.3777998,3.4237 H 10.424674 A 0.26458335,0.26458335 0 0 0 10.688346,3.16002 0.26458335,0.26458335 0 0 0 10.424674,2.8944 Z"
                id="path1509" display="inline" fill="#ebebeb" fill-opacity="1" stroke="none" stroke-dasharray="none"
                stroke-linecap="round" stroke-linejoin="round" stroke-opacity="1" stroke-width="0.52916667"/>
            <path
                d="M 6.2840498,4.03112 A 0.26458335,0.26458335 0 0 0 6.0203779,4.29479 0.26458335,0.26458335 0 0 0 6.2840498,4.56042 H 10.518424 A 0.26458335,0.26458335 0 0 0 10.782096,4.29479 0.26458335,0.26458335 0 0 0 10.518424,4.03112 Z"
                id="path1511" display="inline" fill="#ebebeb" fill-opacity="1" stroke="none" stroke-dasharray="none"
                stroke-linecap="round" stroke-linejoin="round" stroke-opacity="1" stroke-width="0.52916667"/>
            <path
                d="m 6.4930341,5.27526 a 0.26458335,0.26458335 0 0 0 -0.265625,0.26562 0.26458335,0.26458335 0 0 0 0.265625,0.26368 H 10.30944 A 0.26458335,0.26458335 0 0 0 10.575065,5.54088 0.26458335,0.26458335 0 0 0 10.30944,5.27526 Z"
                id="path1513" display="inline" fill="#ebebeb" fill-opacity="1" stroke="none" stroke-dasharray="none"
                stroke-linecap="round" stroke-linejoin="round" stroke-opacity="1" stroke-width="0.52916667"/>
        </g>
        <g transform="matrix(3.6750826835632324 2.3211050033569336 -2.3211050033569336 3.6750826835632324 174.93978881835938 35.94417953491211)"
           id="L1_3">
            <path
                d="M 5.8894654,1.6931391 C 5.6457051,1.5754565 5.3709789,1.6362165 5.1551585,1.7703574 4.939338,1.9044984 4.7573564,2.1148727 4.6293612,2.3799939 4.501366,2.645115 4.4488116,2.9205709 4.4779933,3.1729941 4.5071858,3.4254224 4.630471,3.6783477 4.8742312,3.7960303 5.1179807,3.9137077 5.3927229,3.8529421 5.6085433,3.7188012 5.824353,3.584655 6.0073513,3.3721748 6.1353465,3.1070537 6.2633417,2.8419325 6.3148794,2.5685824 6.2857085,2.3161645 6.256516,2.0637362 6.1332148,1.8108165 5.8894654,1.6931391 Z M 5.6593346,2.1698172 c 0.040605,0.019603 0.085094,0.075571 0.1002942,0.2070702 0.01518,0.1315695 -0.01237,0.316535 -0.1009604,0.5000355 C 5.570078,3.0604235 5.4413007,3.1991818 5.3288923,3.2690875 5.2164254,3.3390317 5.1449455,3.3389451 5.1043619,3.3193522 5.0637568,3.2997489 5.0192683,3.2437815 5.004073,3.1122712 4.9888408,2.9808097 5.0174597,2.7936304 5.1060501,2.6101298 5.1946405,2.4266293 5.3223959,2.2899876 5.4348095,2.2200711 5.5472764,2.1501269 5.6187511,2.1502243 5.6593346,2.1698172 Z"
                id="path1408" display="inline" fill="#ebebeb" fill-opacity="1" stroke="none" stroke-dasharray="none"
                stroke-linecap="round" stroke-linejoin="round" stroke-opacity="1" stroke-width="0.529166"/>
            <path
                d="M 4.9232566,3.3608033 A 0.26458335,0.26458335 0 0 0 4.7101193,3.510702 L 3.8786499,5.2509423 A 0.26458335,0.26458335 0 0 0 4.0027848,5.6022569 0.26458335,0.26458335 0 0 0 4.3564521,5.4781288 L 5.1855794,3.7402389 A 0.26458335,0.26458335 0 0 0 5.0614445,3.3865739 0.26458335,0.26458335 0 0 0 4.9232566,3.3608033 Z"
                id="path1746" display="inline" fill="#ebebeb" fill-opacity="1" stroke="none" stroke-dasharray="none"
                stroke-linecap="round" stroke-linejoin="round" stroke-opacity="1" stroke-width="0.529166"/>
            <path
                d="m 12.8488,4.84173 c -0.09667,-9e-4 -0.190976,0.0146 -0.279297,0.043 C 10.663654,5.4774 8.846902,6.12372 7.0070033,6.73824 L 4.3683314,5.85934 C 3.9141265,5.70702 3.4146607,5.95394 3.2628627,6.40817 3.1101841,6.86273 3.3587027,7.36212 3.8136439,7.51364 l 2.9179688,0.9707 c 0.1789812,0.0597 0.3718,0.0597 0.5507812,0 L 8.096847,8.21285 c -0.013722,1.02759 -0.00102,2.05271 0,3.03321 l -1.75,2.66406 c -0.2625923,0.40063 -0.1489588,0.94683 0.2519531,1.20898 0.3999873,0.26197 0.944483,0.14722 1.2070313,-0.25195 l 0.00195,-0.002 1.6699219,-2.54492 0.5429687,0.50586 -0.035156,1.58593 c -0.010412,0.47934 0.3762481,0.88139 0.8554691,0.89063 0.478113,0.0103 0.879914,-0.37379 0.890625,-0.85156 l 0.04102,-1.9785 c 0.0049,-0.24714 -0.09487,-0.4853 -0.27539,-0.6543 l 0.02734,0.0312 -1.210938,-1.55859 V 7.62293 L 13.116376,6.5409 c 0.455679,-0.15036 0.706687,-0.64839 0.554688,-1.10352 2e-6,-6.5e-4 2e-6,-0.001 0,-0.002 C 13.477378,5.06039 13.259027,4.90849 12.850751,4.84163 Z m -0.0059,0.5293 h 0.002 c 0.147715,8.7e-4 0.277256,0.0943 0.324219,0.23437 0.05986,0.18263 -0.03595,0.37328 -0.21875,0.4336 -0.0039,0.001 -0.0078,0.003 -0.01172,0.004 L 9.9523208,7.19535 C 9.8510803,7.23505 9.784451,7.33269 9.784352,7.44144 v 2.94141 c -2.247e-4,0.0586 0.01901,0.11562 0.054688,0.16211 l 1.267578,1.6289 c 0.0089,0.0112 0.0187,0.0216 0.0293,0.0312 0.07116,0.0666 0.109346,0.16028 0.107422,0.25781 l -0.04102,1.97657 c -0.0043,0.19257 -0.157568,0.33856 -0.34961,0.33398 -6.51e-4,0 -0.0013,0 -0.002,0 -0.192911,-0.004 -0.340125,-0.15683 -0.335937,-0.34961 l 0.03711,-1.70508 c 0.0016,-0.0753 -0.0289,-0.14779 -0.08398,-0.19921 L 9.6104814,11.71873 c -0.119583,-0.11268 -0.3118701,-0.0903 -0.4023438,0.0469 l -1.84375,2.81055 c -0.1054462,0.16149 -0.315224,0.20527 -0.4765624,0.0996 -0.1613877,-0.10552 -0.2033744,-0.31331 -0.097656,-0.4746 h -0.00195 L 8.581222,11.47259 c 0.028726,-0.0428 0.044339,-0.093 0.044922,-0.14453 0,-1.13243 -0.025571,-2.30993 0,-3.47656 C 8.629814,7.66808 8.450257,7.53667 8.2765346,7.59564 L 7.1163784,7.98236 c -0.07037,0.0235 -0.1464267,0.0235 -0.2167969,0 L 3.9816128,7.01165 C 3.7984405,6.95065 3.7033495,6.76106 3.7648159,6.57806 c 2.4e-6,-6.5e-4 2.4e-6,-10e-4 0,-0.002 0.061088,-0.18282 0.2508042,-0.2781 0.4335937,-0.2168 6.511e-4,0 0.0013,0 0.00195,0 l 2.7246093,0.9082 c 0.053906,0.0178 0.11211,0.0178 0.1660157,0 1.8754402,-0.62516 3.7153354,-1.28148 5.6367184,-1.8789 0.0013,10e-6 0.0026,10e-6 0.0039,0 0.03756,-0.0121 0.07542,-0.0178 0.111328,-0.0176 z"
                id="path1682" display="inline" fill="#ebebeb" fill-opacity="1" stroke="none" stroke-dasharray="none"
                stroke-linecap="round" stroke-linejoin="round" stroke-opacity="1" stroke-width="0.529167"/>
            <path
                d="m 8.5519251,2.54681 c -0.8645943,0 -1.5722656,0.70572 -1.5722656,1.57031 0,0.8646 0.7076713,1.57031 1.5722656,1.57031 0.8645944,0 1.5703129,-0.70571 1.5703129,-1.57031 0,-0.86459 -0.7057185,-1.57031 -1.5703129,-1.57031 z m 0,0.5293 c 0.5786115,0 1.0410157,0.4624 1.0410157,1.04101 0,0.57861 -0.4624042,1.04297 -1.0410157,1.04297 -0.5786114,0 -1.0429687,-0.46436 -1.0429687,-1.04297 0,-0.57861 0.4643573,-1.04101 1.0429687,-1.04101 z"
                id="path1701" display="inline" fill="#ebebeb" fill-opacity="1" stroke="none" stroke-dasharray="none"
                stroke-linecap="round" stroke-linejoin="round" stroke-opacity="1" stroke-width="0.529167"/>
        </g>
        <g transform="matrix(3.5019760131835938 3.5019760131835938 -3.5019760131835938 3.5019760131835938 95.99999237060547 147.6998748779297)"
           id="L1_4">
            <path
                d="m 2.113151,4.90417 c -0.2766023,0 -0.5078126,0.23121 -0.5078126,0.50781 v 6.10937 c 0,0.27661 0.2312103,0.50782 0.5078126,0.50782 h 12.707031 c 0.276602,0 0.507813,-0.23121 0.507813,-0.50782 V 5.41198 c 0,-0.2766 -0.231211,-0.50781 -0.507813,-0.50781 z m 0.021484,0.52929 h 12.664063 v 6.06641 H 2.1346353 Z"
                id="rect1534" display="inline" fill="#ebebeb" fill-opacity="1" stroke="none" stroke-dasharray="none"
                stroke-linecap="round" stroke-linejoin="round" stroke-opacity="1" stroke-width="0.52916667"/>
            <path d="m 1.8690102,10.40026 v 0.5293 H 15.064323 v -0.5293 z" id="path1536" display="inline"
                  fill="#ebebeb" fill-opacity="1" stroke="none" stroke-dasharray="none" stroke-linecap="butt"
                  stroke-linejoin="miter" stroke-opacity="1" stroke-width="0.52916667"/>
            <path d="M 1.8690102,6.00378 V 6.53307 H 15.064323 V 6.00378 Z" id="path1538" display="inline"
                  fill="#ebebeb" fill-opacity="1" stroke="none" stroke-dasharray="none" stroke-linecap="butt"
                  stroke-linejoin="miter" stroke-opacity="1" stroke-width="0.52916667"/>
            <path d="m 2.7049478,5.16784 v 6.59765 H 3.2342446 V 5.16784 Z" id="path1540" display="inline"
                  fill="#ebebeb" fill-opacity="1" stroke="none" stroke-dasharray="none" stroke-linecap="butt"
                  stroke-linejoin="miter" stroke-opacity="1" stroke-width="0.52916667"/>
            <path d="m 13.699088,5.16784 v 6.59765 h 0.529297 V 5.16784 Z" id="path1542" display="inline" fill="#ebebeb"
                  fill-opacity="1" stroke="none" stroke-dasharray="none" stroke-linecap="butt" stroke-linejoin="miter"
                  stroke-opacity="1" stroke-width="0.52916667"/>
            <path d="m 6.0037759,5.16784 v 6.59765 H 6.5330727 V 5.16784 Z" id="path1544" display="inline"
                  fill="#ebebeb" fill-opacity="1" stroke="none" stroke-dasharray="none" stroke-linecap="butt"
                  stroke-linejoin="miter" stroke-opacity="1" stroke-width="0.52916667"/>
            <path d="m 10.40026,5.16784 v 6.59765 h 0.529297 V 5.16784 Z" id="path1546" display="inline" fill="#ebebeb"
                  fill-opacity="1" stroke="none" stroke-dasharray="none" stroke-linecap="butt" stroke-linejoin="miter"
                  stroke-opacity="1" stroke-width="0.52916667"/>
            <path d="m 10.665885,8.20104 v 0.5293 h 4.398438 v -0.5293 z" id="path1548" display="inline" fill="#ebebeb"
                  fill-opacity="1" stroke="none" stroke-dasharray="none" stroke-linecap="butt" stroke-linejoin="miter"
                  stroke-opacity="1" stroke-width="0.52916667"/>
            <path d="m 1.8690102,8.20104 v 0.5293 h 4.3984375 v -0.5293 z" id="path1550" display="inline" fill="#ebebeb"
                  fill-opacity="1" stroke="none" stroke-dasharray="none" stroke-linecap="butt" stroke-linejoin="miter"
                  stroke-opacity="1" stroke-width="0.52916667"/>
        </g>
        <g transform="matrix(-2.621901273727417 3.371015787124634 -3.371015787124634 -2.621901273727417 382.88128662109375 227.26065063476562)">
            <path
                d="M 4.7288131,1.58192 A 0.26460981,0.26460981 0 0 0 4.5081099,1.6991 L 2.6741256,4.46668 a 0.26460981,0.26460981 0 0 0 -0.013672,0.26758 l 3.2480469,6.33203 a 0.26458335,0.26458335 0 0 0 0.357422,0.11523 0.26458335,0.26458335 0 0 0 0.1132812,-0.35546 L 3.2014693,4.63074 4.7288131,2.3241 6.3401412,4.74012 a 0.26458335,0.26458335 0 0 0 0.3671875,0.0723 0.26458335,0.26458335 0 0 0 0.072266,-0.36718 L 4.9495166,1.69914 A 0.26460981,0.26460981 0 0 0 4.7288135,1.58196 Z"
                display="inline" fill="#ebebeb" fill-opacity="1" stroke="none" stroke-dasharray="none"
                stroke-linecap="round" stroke-linejoin="round" stroke-opacity="1" stroke-width="0.529167"/>
            <path
                d="M 8.4495162,1.58192 A 0.26460981,0.26460981 0 0 0 8.2288131,1.6991 L 6.3928756,4.48231 a 0.26460981,0.26460981 0 0 0 -0.044922,0.14648 l 0.025391,6.08203 a 0.26458335,0.26458335 0 0 0 0.265625,0.26367 0.26458335,0.26458335 0 0 0 0.2636719,-0.26562 L 6.8772505,4.70692 8.4514692,2.3241 10.03936,4.70887 l 0.05469,6.04297 a 0.26458335,0.26458335 0 0 0 0.265625,0.26172 0.26458335,0.26458335 0 0 0 0.263672,-0.26563 L 10.568657,4.62488 A 0.26460981,0.26460981 0 0 0 10.523737,4.48035 L 8.6682681,1.6991 a 0.26460981,0.26460981 0 0 0 -0.21875,-0.11718 z"
                display="inline" fill="#ebebeb" fill-opacity="1" stroke="none" stroke-dasharray="none"
                stroke-linecap="round" stroke-linejoin="round" stroke-opacity="1" stroke-width="0.529167"/>
            <path
                d="M 12.197563,1.58192 A 0.26460981,0.26460981 0 0 0 11.97686,1.6991 l -1.830078,2.7461 a 0.26458335,0.26458335 0 0 0 0.07227,0.36718 0.26458335,0.26458335 0 0 0 0.367187,-0.0723 l 1.611328,-2.41797 1.535157,2.29687 -3.042969,6.12891 a 0.26458335,0.26458335 0 0 0 0.119141,0.35547 0.26458335,0.26458335 0 0 0 0.353515,-0.12109 L 14.275692,4.71664 A 0.26460981,0.26460981 0 0 0 14.258112,4.45297 L 12.416315,1.69906 a 0.26460981,0.26460981 0 0 0 -0.21875,-0.11718 z"
                display="inline" fill="#ebebeb" fill-opacity="1" stroke="none" stroke-dasharray="none"
                stroke-linecap="round" stroke-linejoin="round" stroke-opacity="1" stroke-width="0.529167"/>
            <path
                d="m 5.8147506,10.83973 a 0.26460981,0.26460981 0 0 0 -0.265625,0.26367 v 1.32812 c 0,1.60998 1.3119057,2.91993 2.921875,2.91993 1.6099704,0 2.9199224,-1.30995 2.9199224,-2.91993 V 11.1034 a 0.26460981,0.26460981 0 0 0 -0.263672,-0.26367 z m 0.2636719,0.52929 h 4.7832035 v 1.0625 c 0,1.324 -1.0666331,2.39258 -2.3906254,2.39258 -1.3239918,0 -2.3925781,-1.06858 -2.3925781,-2.39258 z"
                display="inline" fill="#ebebeb" fill-opacity="1" stroke="none" stroke-dasharray="none"
                stroke-linecap="round" stroke-linejoin="round" stroke-opacity="1" stroke-width="0.529167"/>
            <path
                d="m 5.9573287,12.34168 a 0.26458335,0.26458335 0 0 0 -0.2636719,0.26563 0.26458335,0.26458335 0 0 0 0.2636719,0.26367 h 5.0937503 a 0.26458335,0.26458335 0 0 0 0.263672,-0.26367 0.26458335,0.26458335 0 0 0 -0.263672,-0.26563 z"
                display="inline" fill="#ebebeb" fill-opacity="1" stroke="none" stroke-dasharray="none"
                stroke-linecap="round" stroke-linejoin="miter" stroke-opacity="1" stroke-width="0.529167"/>
        </g>
        <g transform="matrix(-1.8943136930465698 5.28829288482666 -5.28829288482666 -1.8943136930465698 58.228668212890625 52.821022033691406)">
            <path
                d="m 8.4676434,1.04284 c -1.4918814,0 -2.6464843,1.46571 -2.6464843,3.20703 0,1.74132 1.1546029,3.20898 2.6464843,3.20898 1.4918819,0 2.6445306,-1.46766 2.6445306,-3.20898 0,-1.74132 -1.1526487,-3.20703 -2.6445306,-3.20703 z m 0,0.52929 c 1.1383748,0 2.1171876,1.16777 2.1171876,2.67774 0,1.50996 -0.9788128,2.67969 -2.1171876,2.67969 -1.1383748,0 -2.1171875,-1.16973 -2.1171875,-2.67969 0,-1.50997 0.9788127,-2.67774 2.1171875,-2.67774 z"
                display="inline" fill="#ebebeb" fill-opacity="1" stroke="none" stroke-dasharray="none"
                stroke-linecap="round" stroke-linejoin="round" stroke-opacity="1" stroke-width="0.52916667"/>
            <path
                d="M 8.0770184,6.93737 A 0.26458335,0.26458335 0 0 0 7.8133465,7.20104 v 6.26953 a 0.26458335,0.26458335 0 0 0 0.2636719,0.26367 0.26458335,0.26458335 0 0 0 0.265625,-0.26367 V 7.20104 A 0.26458335,0.26458335 0 0 0 8.0770184,6.93737 Z m 0.78125,0 a 0.26458335,0.26458335 0 0 0 -0.265625,0.26367 v 6.26953 a 0.26458335,0.26458335 0 0 0 0.265625,0.26367 0.26458335,0.26458335 0 0 0 0.2636719,-0.26367 V 7.20104 A 0.26458335,0.26458335 0 0 0 8.8582684,6.93737 Z"
                display="inline" fill="#ebebeb" fill-opacity="1" stroke="none" stroke-dasharray="none"
                stroke-linecap="round" stroke-linejoin="round" stroke-opacity="1" stroke-width="0.52916667"/>
            <path
                d="m 8.0223309,13.34752 c -0.2702611,0 -0.4960937,0.22584 -0.4960937,0.4961 v 1.55078 c 0,0.27026 0.2258326,0.49609 0.4960937,0.49609 h 0.8886719 c 0.2702611,0 0.4960937,-0.22583 0.4960937,-0.49609 v -1.55078 c 0,-0.27026 -0.2258326,-0.4961 -0.4960937,-0.4961 z m 0.033203,0.5293 H 8.8777995 V 15.3612 H 8.0555341 Z"
                display="inline" fill="#ebebeb" fill-opacity="1" stroke="none" stroke-dasharray="none"
                stroke-linecap="round" stroke-linejoin="round" stroke-opacity="1" stroke-width="0.52916667"/>
            <path
                d="M 7.3426434,1.57213 A 0.26458335,0.26458335 0 0 0 7.0789715,1.83581 V 6.86315 A 0.26458335,0.26458335 0 0 0 7.3426434,7.12877 0.26458335,0.26458335 0 0 0 7.6082684,6.86315 V 1.83581 A 0.26458335,0.26458335 0 0 0 7.3426434,1.57213 Z"
                display="inline" fill="#ebebeb" fill-opacity="1" stroke="none" stroke-dasharray="none"
                stroke-linecap="round" stroke-linejoin="round" stroke-opacity="1" stroke-width="0.52916667"/>
            <path
                d="M 8.4715497,1.04284 A 0.26458335,0.26458335 0 0 0 8.2059247,1.30651 V 7.12877 A 0.26458335,0.26458335 0 0 0 8.4715497,7.39245 0.26458335,0.26458335 0 0 0 8.7352215,7.12877 V 1.30651 A 0.26458335,0.26458335 0 0 0 8.4715497,1.04284 Z"
                display="inline" fill="#ebebeb" fill-opacity="1" stroke="none" stroke-dasharray="none"
                stroke-linecap="round" stroke-linejoin="round" stroke-opacity="1" stroke-width="0.52916667"/>
            <path
                d="M 9.5828778,1.47643 A 0.26458335,0.26458335 0 0 0 9.3192059,1.74206 V 6.69323 A 0.26458335,0.26458335 0 0 0 9.5828778,6.95885 0.26458335,0.26458335 0 0 0 9.8485028,6.69323 V 1.74206 A 0.26458335,0.26458335 0 0 0 9.5828778,1.47643 Z"
                display="inline" fill="#ebebeb" fill-opacity="1" stroke="none" stroke-dasharray="none"
                stroke-linecap="round" stroke-linejoin="round" stroke-opacity="1" stroke-width="0.52916667"/>
            <path
                d="M 6.3777998,2.8944 A 0.26458335,0.26458335 0 0 0 6.1121748,3.16002 0.26458335,0.26458335 0 0 0 6.3777998,3.4237 H 10.424674 A 0.26458335,0.26458335 0 0 0 10.688346,3.16002 0.26458335,0.26458335 0 0 0 10.424674,2.8944 Z"
                display="inline" fill="#ebebeb" fill-opacity="1" stroke="none" stroke-dasharray="none"
                stroke-linecap="round" stroke-linejoin="round" stroke-opacity="1" stroke-width="0.52916667"/>
            <path
                d="M 6.2840498,4.03112 A 0.26458335,0.26458335 0 0 0 6.0203779,4.29479 0.26458335,0.26458335 0 0 0 6.2840498,4.56042 H 10.518424 A 0.26458335,0.26458335 0 0 0 10.782096,4.29479 0.26458335,0.26458335 0 0 0 10.518424,4.03112 Z"
                display="inline" fill="#ebebeb" fill-opacity="1" stroke="none" stroke-dasharray="none"
                stroke-linecap="round" stroke-linejoin="round" stroke-opacity="1" stroke-width="0.52916667"/>
            <path
                d="m 6.4930341,5.27526 a 0.26458335,0.26458335 0 0 0 -0.265625,0.26562 0.26458335,0.26458335 0 0 0 0.265625,0.26368 H 10.30944 A 0.26458335,0.26458335 0 0 0 10.575065,5.54088 0.26458335,0.26458335 0 0 0 10.30944,5.27526 Z"
                display="inline" fill="#ebebeb" fill-opacity="1" stroke="none" stroke-dasharray="none"
                stroke-linecap="round" stroke-linejoin="round" stroke-opacity="1" stroke-width="0.52916667"/>
        </g>
    </defs>
    <g fi:class="KUsePattern">
        <pattern id="pattern_L1_0" width="350" height="350" patternUnits="userSpaceOnUse">
            <use xlink:href="#L1_0" x="-350" y="-350"/>
            <use xlink:href="#L1_0" x="0" y="-350"/>
            <use xlink:href="#L1_0" x="350" y="-350"/>
            <use xlink:href="#L1_0" x="-350" y="0"/>
            <use xlink:href="#L1_0" x="0" y="0"/>
            <use xlink:href="#L1_0" x="350" y="0"/>
            <use xlink:href="#L1_0" x="-350" y="350"/>
            <use xlink:href="#L1_0" x="0" y="350"/>
            <use xlink:href="#L1_0" x="350" y="350"/>
        </pattern>
        <rect x="0" y="0" width="100%" height="100%" fill="url(#pattern_L1_0)"/>
    </g>
    <g fi:class="KUsePattern">
        <pattern id="pattern_L1_1" width="350" height="350" patternUnits="userSpaceOnUse">
            <use xlink:href="#L1_1" x="-350" y="-350"/>
            <use xlink:href="#L1_1" x="0" y="-350"/>
            <use xlink:href="#L1_1" x="350" y="-350"/>
            <use xlink:href="#L1_1" x="-350" y="0"/>
            <use xlink:href="#L1_1" x="0" y="0"/>
            <use xlink:href="#L1_1" x="350" y="0"/>
            <use xlink:href="#L1_1" x="-350" y="350"/>
            <use xlink:href="#L1_1" x="0" y="350"/>
            <use xlink:href="#L1_1" x="350" y="350"/>
        </pattern>
        <rect x="0" y="0" width="100%" height="100%" fill="url(#pattern_L1_1)"/>
    </g>
    <g fi:class="KUsePattern">
        <pattern id="pattern_L1_2" width="350" height="350" patternUnits="userSpaceOnUse">
            <use xlink:href="#L1_2" x="-350" y="-350"/>
            <use xlink:href="#L1_2" x="0" y="-350"/>
            <use xlink:href="#L1_2" x="350" y="-350"/>
            <use xlink:href="#L1_2" x="-350" y="0"/>
            <use xlink:href="#L1_2" x="0" y="0"/>
            <use xlink:href="#L1_2" x="350" y="0"/>
            <use xlink:href="#L1_2" x="-350" y="350"/>
            <use xlink:href="#L1_2" x="0" y="350"/>
            <use xlink:href="#L1_2" x="350" y="350"/>
        </pattern>
        <rect x="0" y="0" width="100%" height="100%" fill="url(#pattern_L1_2)"/>
    </g>
    <g fi:class="KUsePattern">
        <pattern id="pattern_L1_3" width="350" height="350" patternUnits="userSpaceOnUse">
            <use xlink:href="#L1_3" x="-350" y="-350"/>
            <use xlink:href="#L1_3" x="0" y="-350"/>
            <use xlink:href="#L1_3" x="350" y="-350"/>
            <use xlink:href="#L1_3" x="-350" y="0"/>
            <use xlink:href="#L1_3" x="0" y="0"/>
            <use xlink:href="#L1_3" x="350" y="0"/>
            <use xlink:href="#L1_3" x="-350" y="350"/>
            <use xlink:href="#L1_3" x="0" y="350"/>
            <use xlink:href="#L1_3" x="350" y="350"/>
        </pattern>
        <rect x="0" y="0" width="100%" height="100%" fill="url(#pattern_L1_3)"/>
    </g>
    <g fi:class="KUsePattern">
        <pattern id="pattern_L1_4" width="350" height="350" patternUnits="userSpaceOnUse">
            <use xlink:href="#L1_4" x="-350" y="-350"/>
            <use xlink:href="#L1_4" x="0" y="-350"/>
            <use xlink:href="#L1_4" x="350" y="-350"/>
            <use xlink:href="#L1_4" x="-350" y="0"/>
            <use xlink:href="#L1_4" x="0" y="0"/>
            <use xlink:href="#L1_4" x="350" y="0"/>
            <use xlink:href="#L1_4" x="-350" y="350"/>
            <use xlink:href="#L1_4" x="0" y="350"/>
            <use xlink:href="#L1_4" x="350" y="350"/>
        </pattern>
        <rect x="0" y="0" width="100%" height="100%" fill="url(#pattern_L1_4)"/>
    </g>
    <g fi:class="KUsePattern" transform="matrix(1 0 0 1 20 20)">
        <pattern id="pattern_UNKNOWN" width="350" height="350" patternUnits="userSpaceOnUse">
            <use xlink:href="#UNKNOWN" x="-350" y="-350"/>
            <use xlink:href="#UNKNOWN" x="0" y="-350"/>
            <use xlink:href="#UNKNOWN" x="350" y="-350"/>
            <use xlink:href="#UNKNOWN" x="-350" y="0"/>
            <use xlink:href="#UNKNOWN" x="0" y="0"/>
            <use xlink:href="#UNKNOWN" x="350" y="0"/>
            <use xlink:href="#UNKNOWN" x="-350" y="350"/>
            <use xlink:href="#UNKNOWN" x="0" y="350"/>
            <use xlink:href="#UNKNOWN" x="350" y="350"/>
        </pattern>
        <rect x="0" y="0" width="100%" height="100%" fill="url(#pattern_UNKNOWN)"/>
    </g>
    <g fi:class="KUsePattern" transform="matrix(1 0 0 1 20 20)">
        <pattern id="pattern_UNKNOWN" width="350" height="350" patternUnits="userSpaceOnUse">
            <use xlink:href="#UNKNOWN" x="-350" y="-350"/>
            <use xlink:href="#UNKNOWN" x="0" y="-350"/>
            <use xlink:href="#UNKNOWN" x="350" y="-350"/>
            <use xlink:href="#UNKNOWN" x="-350" y="0"/>
            <use xlink:href="#UNKNOWN" x="0" y="0"/>
            <use xlink:href="#UNKNOWN" x="350" y="0"/>
            <use xlink:href="#UNKNOWN" x="-350" y="350"/>
            <use xlink:href="#UNKNOWN" x="0" y="350"/>
            <use xlink:href="#UNKNOWN" x="350" y="350"/>
        </pattern>
        <rect x="0" y="0" width="100%" height="100%" fill="url(#pattern_UNKNOWN)"/>
    </g>
</svg>
